<svg width="100" height="100" viewBox="0 0 100 100" xmlns="http://www.w3.org/2000/svg">
  <!-- Admin Icon with Gear -->
  <circle cx="50" cy="50" r="48" fill="#000000"/>
  
  <!-- Person Head -->
  <circle cx="50" cy="35" r="12" fill="#000000"/>
  
  <!-- Person Body -->
  <path d="M 25 75 Q 25 60 35 55 Q 45 50 50 50 Q 55 50 65 55 Q 75 60 75 75 L 75 85 L 25 85 Z" fill="#000000"/>
  
  <!-- Gear -->
  <g transform="translate(65, 65) scale(0.8)">
    <path d="M 12 2 L 10 2 L 9.5 0.5 L 7.5 0.5 L 7 2 L 5 2 L 4.5 3.5 L 2.5 4.5 L 2 6 L 2 8 L 0.5 8.5 L 0.5 10.5 L 2 11 L 2 13 L 2.5 14.5 L 4.5 15.5 L 5 17 L 7 17 L 7.5 18.5 L 9.5 18.5 L 10 17 L 12 17 L 12.5 15.5 L 14.5 14.5 L 15 13 L 15 11 L 16.5 10.5 L 16.5 8.5 L 15 8 L 15 6 L 14.5 4.5 L 12.5 3.5 Z M 8.5 6 A 3.5 3.5 0 0 1 12 9.5 A 3.5 3.5 0 0 1 8.5 13 A 3.5 3.5 0 0 1 5 9.5 A 3.5 3.5 0 0 1 8.5 6 Z" fill="#000000"/>
  </g>
</svg>