<svg xmlns="http://www.w3.org/2000/svg" viewBox="0 0 32 32" width="32" height="32">
  <defs>
    <linearGradient id="toothGradient" x1="0%" y1="0%" x2="100%" y2="100%">
      <stop offset="0%" style="stop-color:#ffffff;stop-opacity:1" />
      <stop offset="100%" style="stop-color:#f8f9fa;stop-opacity:1" />
    </linearGradient>
  </defs>
  
  <!-- Background circle -->
  <circle cx="16" cy="16" r="15" fill="#0891b2" stroke="#0e7490" stroke-width="1"/>
  
  <!-- Tooth shape -->
  <path d="M16 6c-3.5 0-6 2-6 4.5 0 1.5 0.5 3 1 4.5 0.5 2 1.5 4.5 2.5 6 0.5 0.8 1.2 1.5 2.5 1.5s2-0.7 2.5-1.5c1-1.5 2-4 2.5-6 0.5-1.5 1-3 1-4.5 0-2.5-2.5-4.5-6-4.5z" 
        fill="url(#toothGradient)" 
        stroke="#e5e7eb" 
        stroke-width="0.5"/>
  
  <!-- Tooth shine effect -->
  <ellipse cx="14" cy="12" rx="1.5" ry="3" fill="#ffffff" opacity="0.4"/>
  
  <!-- Small dental cross -->
  <g transform="translate(21, 21)">
    <rect x="-1" y="-3" width="2" height="6" fill="#ffffff" rx="1"/>
    <rect x="-3" y="-1" width="6" height="2" fill="#ffffff" rx="1"/>
  </g>
</svg>